<svg xmlns="http://www.w3.org/2000/svg" viewBox="0 10.550000190734863 251.75 37.150001525878906" data-asc="0.94" width="251.75" height="37.150001525878906"><g fill="#000000"><g transform="translate(0, 0)"><path d="M10.40 47.70Q4.85 47.70 2.43 44.40Q0 41.10 0 36.10L0 35.10L4.50 35.10L4.50 36.10Q4.50 38.55 4.92 40.17Q5.35 41.80 6.65 42.75Q7.95 43.70 10.40 43.70Q14 43.70 15.17 41.77Q16.35 39.85 16.35 36.10L16.35 11.25L20.85 11.25L20.85 36.10Q20.85 41.10 18.40 44.40Q15.95 47.70 10.40 47.70ZM42.80 47.70Q37.95 47.70 34.20 45.30Q30.45 42.90 28.35 38.67Q26.25 34.45 26.25 29.10Q26.25 23.75 28.35 19.52Q30.45 15.30 34.20 12.92Q37.95 10.55 42.80 10.55Q47.05 10.55 50.35 12.23Q53.65 13.90 55.60 16.75Q57.55 19.60 58 23.05L53.30 23.05Q52.65 19.70 50.23 17.13Q47.80 14.55 42.80 14.55Q38.75 14.55 36.10 16.60Q33.45 18.65 32.20 21.95Q30.95 25.25 30.95 29.10Q30.95 32.95 32.20 36.27Q33.45 39.60 36.10 41.65Q38.75 43.70 42.80 43.70Q47.95 43.70 50.50 40.88Q53.05 38.05 53.30 34.10L58 34.10Q57.60 38.05 55.65 41.15Q53.70 44.25 50.40 45.98Q47.10 47.70 42.80 47.70ZM77.95 47.70Q73.10 47.70 69.35 45.30Q65.60 42.90 63.50 38.67Q61.40 34.45 61.40 29.10Q61.40 23.75 63.50 19.52Q65.60 15.30 69.35 12.92Q73.10 10.55 77.95 10.55Q82.20 10.55 85.50 12.23Q88.80 13.90 90.75 16.75Q92.70 19.60 93.15 23.05L88.45 23.05Q87.80 19.70 85.38 17.13Q82.95 14.55 77.95 14.55Q73.90 14.55 71.25 16.60Q68.60 18.65 67.35 21.95Q66.10 25.25 66.10 29.10Q66.10 32.95 67.35 36.27Q68.60 39.60 71.25 41.65Q73.90 43.70 77.95 43.70Q83.10 43.70 85.65 40.88Q88.20 38.05 88.45 34.10L93.15 34.10Q92.75 38.05 90.80 41.15Q88.85 44.25 85.55 45.98Q82.25 47.70 77.95 47.70ZM98.35 11.25L111.30 11.25Q116.25 11.25 119.83 13.32Q123.40 15.40 125.30 19.42Q127.20 23.45 127.20 29.15Q127.20 37.70 122.98 42.35Q118.75 47 111.30 47L98.35 47L98.35 11.25M111.30 43Q122.50 43 122.50 29.15Q122.50 15.25 111.30 15.25L102.85 15.25L102.85 43L111.30 43ZM132.90 11.25L137.40 11.25L137.40 43L156.15 43L156.15 47L132.90 47L132.90 11.25ZM170.45 11.25L175.50 11.25L188.80 47L183.95 47L180.80 38.05L165.05 38.05L161.90 47L157.25 47L170.45 11.25M179.35 34.05L173.00 15.40L172.90 15.40L166.55 34.05L179.35 34.05ZM192.80 11.25L207.20 11.25Q212.65 11.25 215.78 13.67Q218.90 16.10 218.90 20.25Q218.90 25.75 213.35 27.65L213.35 27.75Q216.40 28.25 218.35 30.52Q220.30 32.80 220.30 36.60Q220.30 41.50 217.05 44.25Q213.80 47 208.20 47L192.80 47L192.80 11.25M208.45 43Q215.60 43 215.60 36.60Q215.60 33.70 213.93 31.95Q212.25 30.20 209.45 30.20L197.30 30.20L197.30 43L208.45 43M207.70 26.20Q211.30 26.20 212.75 24.80Q214.20 23.40 214.20 20.75Q214.20 18.20 212.70 16.72Q211.20 15.25 208.20 15.25L197.30 15.25L197.30 26.20L207.70 26.20ZM239.00 47.70Q234.55 47.70 231.10 46.17Q227.65 44.65 225.63 41.80Q223.60 38.95 223.35 35L228.05 35Q228.95 43.75 238.80 43.75Q243.30 43.75 245.18 42.02Q247.05 40.30 247.05 37.25Q247.05 34.95 246.05 33.70Q245.05 32.45 243.25 31.77Q241.45 31.10 237.65 30.15Q237.30 30.10 236.60 29.90Q232.95 29 230.58 28.05Q228.20 27.10 226.53 25.15Q224.85 23.20 224.85 20Q224.85 15.65 228.05 13.10Q231.25 10.55 236.95 10.55Q243.00 10.55 246.58 13.50Q250.15 16.45 250.60 21.85L245.90 21.85Q245.40 18.15 243.30 16.32Q241.20 14.50 237.00 14.50Q233.30 14.50 231.43 15.85Q229.55 17.20 229.55 19.80Q229.55 21.90 230.73 23.10Q231.90 24.30 233.60 24.90Q235.30 25.50 238.45 26.25Q242.95 27.30 245.60 28.32Q248.25 29.35 250.00 31.45Q251.75 33.55 251.75 37.10Q251.75 41.80 248.55 44.75Q245.35 47.70 239.00 47.70Z"/></g></g></svg>